<svg width="24" height="20" viewBox="0 0 24 20" fill="none" xmlns="http://www.w3.org/2000/svg">
<path d="M22.7501 0.760056C22.7501 0.760056 20.7321 1.95206 19.6101 2.29006C19.0079 1.59757 18.2075 1.10675 17.3172 0.883982C16.4269 0.661216 15.4896 0.717251 14.6322 1.04451C13.7748 1.37177 13.0386 1.95446 12.5231 2.71377C12.0076 3.47309 11.7378 4.37239 11.7501 5.29006V6.29006C9.99276 6.33562 8.2514 5.94587 6.68113 5.1555C5.11087 4.36513 3.76044 3.19869 2.75012 1.76006C2.75012 1.76006 -1.24988 10.7601 7.75012 14.7601C5.69065 16.158 3.23728 16.859 0.750122 16.7601C9.75012 21.7601 20.7501 16.7601 20.7501 5.26006C20.7495 4.98139 20.7228 4.70472 20.6701 4.43006C21.6901 3.42406 22.7501 0.760056 22.7501 0.760056Z" stroke="white" stroke-width="1.5" stroke-linecap="round" stroke-linejoin="round"/>
</svg>
